<?xml version="1.0" standalone="no"?>
<!DOCTYPE svg PUBLIC "-//W3C//DTD SVG 20010904//EN"
 "http://www.w3.org/TR/2001/REC-SVG-20010904/DTD/svg10.dtd">
<svg version="1.0" xmlns="http://www.w3.org/2000/svg"
 width="16.000000pt" height="16.000000pt" viewBox="0 0 16.000000 16.000000"
 preserveAspectRatio="xMidYMid meet">
<metadata>
Created by potrace 1.11, written by Peter Selinger 2001-2013
</metadata>
<g transform="translate(0.000000,16.000000) scale(0.006400,-0.006400)"
fill="#000000" stroke="none">
<path d="M44 1989 c-2 -4 -4 -339 -4 -745 l-1 -739 1202 -3 c662 -1 1206 1
1210 5 5 5 -92 7 -214 6 -194 -2 -217 -1 -182 11 157 51 297 180 355 327 12
30 27 57 33 61 15 9 16 317 0 349 -6 13 -19 51 -28 84 -10 33 -34 95 -56 137
-89 179 -215 308 -400 411 -55 30 -182 77 -210 77 -10 0 -19 5 -19 11 0 5 4 7
10 4 5 -3 10 -2 10 3 0 6 -11 9 -24 8 -13 0 -22 -4 -19 -8 2 -5 -1 -8 -6 -8
-6 0 -11 4 -11 9 0 11 -338 11 -368 0 -15 -6 -21 -5 -17 1 10 17 -7 11 -22 -7
-11 -13 -13 -14 -10 -3 4 13 -68 15 -610 15 -338 0 -617 -3 -619 -6z m1216
-10 c0 -4 -27 -12 -61 -18 -156 -31 -372 -126 -526 -233 -192 -132 -367 -335
-480 -553 -32 -62 -98 -232 -107 -276 -36 -172 -34 -187 -35 466 l-1 620 605
0 c333 0 605 -3 605 -6z m261 -11 c0 -7 0 -337 1 -733 l0 -720 -735 -3 -736
-2 5 67 c25 425 206 787 533 1067 188 160 493 292 744 322 29 4 53 7 55 9 1 1
31 3 67 4 48 1 65 -1 66 -11z m222 -13 c381 -96 660 -421 693 -807 l6 -68
-451 0 -451 0 -1 33 c-3 121 -4 827 0 846 4 23 6 23 73 17 39 -3 98 -13 131
-21z m-110 -905 c-16 -9 -40 -30 -53 -46 -14 -16 -29 -29 -35 -29 -8 0 -15 71
-8 86 1 4 30 7 64 7 l60 0 -28 -18z m237 -7 c0 -29 -1 -29 -30 2 l-24 25 27
-2 c21 -2 27 -8 27 -25z m565 -32 c-21 -170 -125 -331 -270 -416 -64 -38 -163
-71 -232 -78 -36 -4 -42 -1 -45 17 -6 33 -1 503 5 519 4 12 51 14 277 14 l272
0 -7 -56z m-695 -51 l0 -100 -100 0 c-115 0 -117 3 -79 85 29 61 99 113 157
114 21 1 22 -2 22 -99z m71 84 c25 -13 59 -64 59 -89 0 -3 -26 -5 -57 -3 l-58
3 0 53 c-1 58 6 62 56 36z m-27 -129 c-3 -7 -12 -11 -20 -8 -17 6 -18 20 -1
26 18 6 27 -1 21 -18z m80 7 c-2 -25 -5 -28 -34 -45 l-30 -18 0 39 c0 37 1 38
33 37 17 -1 32 -7 31 -13z m-79 -42 c3 -5 -1 -10 -9 -10 -9 0 -16 5 -16 10 0
6 4 10 9 10 6 0 13 -4 16 -10z m85 -10 c0 -5 -5 -10 -11 -10 -5 0 -7 5 -4 10
3 6 8 10 11 10 2 0 4 -4 4 -10z m0 -184 c0 -89 -3 -165 -6 -168 -10 -11 -111
19 -156 45 -87 51 -151 146 -165 244 l-6 43 167 -1 166 0 0 -163z m-305 -3
c28 -52 96 -118 152 -147 l48 -25 -112 -1 c-101 0 -113 2 -113 18 -1 9 -2 56
-3 105 -1 48 0 87 3 87 3 0 14 -17 25 -37z"/>
<path d="M1765 1990 c-2 -3 148 -5 333 -5 222 1 340 -3 344 -10 5 -6 8 -4 8 5
0 13 -43 15 -341 15 -187 0 -342 -2 -344 -5z"/>
<path d="M2443 1905 c0 -22 2 -30 4 -17 2 12 2 30 0 40 -3 9 -5 -1 -4 -23z"/>
<path d="M2443 1795 c0 -38 2 -53 4 -32 2 20 2 52 0 70 -2 17 -4 1 -4 -38z"/>
<path d="M2440 1696 c0 -31 6 -34 13 -6 3 11 1 23 -4 26 -5 3 -9 -6 -9 -20z"/>
<path d="M2440 1649 c0 -5 5 -7 10 -4 6 3 10 8 10 11 0 2 -4 4 -10 4 -5 0 -10
-5 -10 -11z"/>
<path d="M2442 1610 c0 -14 2 -19 5 -12 2 6 2 18 0 25 -3 6 -5 1 -5 -13z"/>
<path d="M2443 1535 c0 -27 2 -38 4 -22 2 15 2 37 0 50 -2 12 -4 0 -4 -28z"/>
<path d="M2440 1461 c0 -25 6 -27 13 -6 4 8 2 17 -3 20 -6 4 -10 -3 -10 -14z"/>
<path d="M2440 1410 c0 -11 2 -20 4 -20 2 0 6 9 9 20 3 11 1 20 -4 20 -5 0 -9
-9 -9 -20z"/>
<path d="M2441 1328 c0 -32 2 -58 7 -58 4 0 6 19 4 43 -5 70 -10 76 -11 15z"/>
<path d="M2444 805 c0 -55 1 -76 3 -47 2 29 2 74 0 100 -2 26 -3 2 -3 -53z"/>
<path d="M2440 689 c0 -5 5 -7 10 -4 6 3 10 8 10 11 0 2 -4 4 -10 4 -5 0 -10
-5 -10 -11z"/>
<path d="M2442 650 c0 -14 2 -19 5 -12 2 6 2 18 0 25 -3 6 -5 1 -5 -13z"/>
<path d="M2443 575 c0 -27 2 -38 4 -22 2 15 2 37 0 50 -2 12 -4 0 -4 -28z"/>
</g>
</svg>
